{
	"asset":{
		"generator":"Khronos glTF Blender I/O v4.4.55",
		"version":"2.0"
	},
	"extensionsUsed":[
		"KHR_materials_specular",
		"KHR_materials_ior"
	],
	"scene":0,
	"scenes":[
		{
			"name":"Scene",
			"nodes":[
				0
			]
		}
	],
	"nodes":[
		{
			"mesh":0,
			"name":"bodyGeo",
			"rotation":[
				0.7071068286895752,
				0,
				0,
				0.7071068286895752
			]
		}
	],
	"materials":[
		{
			"doubleSided":true,
			"extensions":{
				"KHR_materials_specular":{
					"specularFactor":0
				},
				"KHR_materials_ior":{
					"ior":1.4500000476837158
				}
			},
			"name":"03_sanagi02_base_mat",
			"pbrMetallicRoughness":{
				"baseColorTexture":{
					"index":0
				},
				"metallicFactor":0,
				"roughnessFactor":0.5527864098548889
			}
		}
	],
	"meshes":[
		{
			"name":"bodyGeo",
			"primitives":[
				{
					"attributes":{
						"POSITION":0,
						"NORMAL":1,
						"TEXCOORD_0":2
					},
					"indices":3,
					"material":0
				}
			]
		}
	],
	"textures":[
		{
			"sampler":0,
			"source":0
		}
	],
	"images":[
		{
			"mimeType":"image/png",
			"name":"sanagi02_baseA",
			"uri":"sanagi02_baseA.png"
		}
	],
	"accessors":[
		{
			"bufferView":0,
			"componentType":5126,
			"count":7806,
			"max":[
				3.305933952331543,
				2.2389070987701416,
				9.999999974752427e-07
			],
			"min":[
				-3.3059349060058594,
				-1.7076849937438965,
				-4.311357021331787
			],
			"type":"VEC3"
		},
		{
			"bufferView":1,
			"componentType":5126,
			"count":7806,
			"type":"VEC3"
		},
		{
			"bufferView":2,
			"componentType":5126,
			"count":7806,
			"type":"VEC2"
		},
		{
			"bufferView":3,
			"componentType":5123,
			"count":36402,
			"type":"SCALAR"
		}
	],
	"bufferViews":[
		{
			"buffer":0,
			"byteLength":93672,
			"byteOffset":0,
			"target":34962
		},
		{
			"buffer":0,
			"byteLength":93672,
			"byteOffset":93672,
			"target":34962
		},
		{
			"buffer":0,
			"byteLength":62448,
			"byteOffset":187344,
			"target":34962
		},
		{
			"buffer":0,
			"byteLength":72804,
			"byteOffset":249792,
			"target":34963
		}
	],
	"samplers":[
		{
			"magFilter":9729,
			"minFilter":9987
		}
	],
	"buffers":[
		{
			"byteLength":322596,
			"uri":"insect.bin"
		}
	]
}
