{
	"asset":{
		"generator":"Khronos glTF Blender I/O v4.4.55",
		"version":"2.0"
	},
	"extensionsUsed":[
		"KHR_materials_specular"
	],
	"scene":0,
	"scenes":[
		{
			"name":"Scene",
			"nodes":[
				0,
				1
			]
		}
	],
	"nodes":[
		{
			"mesh":0,
			"name":"GamemodelShape",
			"rotation":[
				0.70710688829422,
				0,
				0,
				0.7071066498756409
			],
			"translation":[
				0,
				-0.08774769306182861,
				-0.15006422996520996
			]
		},
		{
			"mesh":1,
			"name":"doll_eye_meshShape",
			"rotation":[
				-0.7071068286895752,
				-0.7071068286895752,
				0,
				1.1520234011186403e-07
			],
			"translation":[
				0,
				2.1409120559692383,
				2.0361557006835938
			]
		}
	],
	"materials":[
		{
			"alphaMode":"BLEND",
			"doubleSided":true,
			"extensions":{
				"KHR_materials_specular":{
					"specularFactor":0
				}
			},
			"name":"mimikkyu",
			"pbrMetallicRoughness":{
				"baseColorTexture":{
					"index":0
				},
				"roughnessFactor":0.858578622341156
			}
		},
		{
			"alphaMode":"BLEND",
			"doubleSided":true,
			"extensions":{
				"KHR_materials_specular":{
					"specularFactor":0
				}
			},
			"name":"mimikkyu_eye",
			"pbrMetallicRoughness":{
				"baseColorTexture":{
					"index":1
				},
				"roughnessFactor":0.858578622341156
			}
		}
	],
	"meshes":[
		{
			"name":"Mesh.062",
			"primitives":[
				{
					"attributes":{
						"POSITION":0,
						"NORMAL":1,
						"TEXCOORD_0":2,
						"COLOR_0":3,
						"COLOR_1":4
					},
					"indices":5,
					"material":0
				}
			]
		},
		{
			"name":"Mesh.064",
			"primitives":[
				{
					"attributes":{
						"POSITION":6,
						"NORMAL":7,
						"TEXCOORD_0":8,
						"COLOR_0":9,
						"COLOR_1":10
					},
					"indices":11,
					"material":1
				}
			]
		}
	],
	"textures":[
		{
			"sampler":0,
			"source":0
		},
		{
			"sampler":0,
			"source":1
		}
	],
	"images":[
		{
			"mimeType":"image/png",
			"name":"mimikkyu_col",
			"uri":"mimikkyu_col.png"
		},
		{
			"mimeType":"image/png",
			"name":"mimikkyu_eye_col",
			"uri":"mimikkyu_eye_col.png"
		}
	],
	"accessors":[
		{
			"bufferView":0,
			"componentType":5126,
			"count":1831,
			"max":[
				5.583970069885254,
				3.9301700592041016,
				-0.05541079863905907
			],
			"min":[
				-5.470210075378418,
				-7.0373101234436035,
				-12.454400062561035
			],
			"type":"VEC3"
		},
		{
			"bufferView":1,
			"componentType":5126,
			"count":1831,
			"type":"VEC3"
		},
		{
			"bufferView":2,
			"componentType":5126,
			"count":1831,
			"type":"VEC2"
		},
		{
			"bufferView":3,
			"componentType":5121,
			"count":1831,
			"normalized":true,
			"type":"VEC4"
		},
		{
			"bufferView":4,
			"componentType":5123,
			"count":1831,
			"normalized":true,
			"type":"VEC4"
		},
		{
			"bufferView":5,
			"componentType":5123,
			"count":8466,
			"type":"SCALAR"
		},
		{
			"bufferView":6,
			"componentType":5126,
			"count":20,
			"max":[
				0.567484974861145,
				1.407770037651062,
				0.44755199551582336
			],
			"min":[
				-0.5186160206794739,
				-1.407770037651062,
				-0.39686301350593567
			],
			"type":"VEC3"
		},
		{
			"bufferView":7,
			"componentType":5126,
			"count":20,
			"type":"VEC3"
		},
		{
			"bufferView":8,
			"componentType":5126,
			"count":20,
			"type":"VEC2"
		},
		{
			"bufferView":9,
			"componentType":5121,
			"count":20,
			"normalized":true,
			"type":"VEC4"
		},
		{
			"bufferView":10,
			"componentType":5123,
			"count":20,
			"normalized":true,
			"type":"VEC4"
		},
		{
			"bufferView":11,
			"componentType":5123,
			"count":72,
			"type":"SCALAR"
		}
	],
	"bufferViews":[
		{
			"buffer":0,
			"byteLength":21972,
			"byteOffset":0,
			"target":34962
		},
		{
			"buffer":0,
			"byteLength":21972,
			"byteOffset":21972,
			"target":34962
		},
		{
			"buffer":0,
			"byteLength":14648,
			"byteOffset":43944,
			"target":34962
		},
		{
			"buffer":0,
			"byteLength":7324,
			"byteOffset":58592,
			"target":34962
		},
		{
			"buffer":0,
			"byteLength":14648,
			"byteOffset":65916,
			"target":34962
		},
		{
			"buffer":0,
			"byteLength":16932,
			"byteOffset":80564,
			"target":34963
		},
		{
			"buffer":0,
			"byteLength":240,
			"byteOffset":97496,
			"target":34962
		},
		{
			"buffer":0,
			"byteLength":240,
			"byteOffset":97736,
			"target":34962
		},
		{
			"buffer":0,
			"byteLength":160,
			"byteOffset":97976,
			"target":34962
		},
		{
			"buffer":0,
			"byteLength":80,
			"byteOffset":98136,
			"target":34962
		},
		{
			"buffer":0,
			"byteLength":160,
			"byteOffset":98216,
			"target":34962
		},
		{
			"buffer":0,
			"byteLength":144,
			"byteOffset":98376,
			"target":34963
		}
	],
	"samplers":[
		{
			"magFilter":9729,
			"minFilter":9987
		}
	],
	"buffers":[
		{
			"byteLength":98520,
			"uri":"mimikyu.bin"
		}
	]
}
