{
	"asset":{
		"generator":"Khronos glTF Blender I/O v4.4.55",
		"version":"2.0"
	},
	"extensionsUsed":[
		"KHR_materials_specular"
	],
	"scene":0,
	"scenes":[
		{
			"name":"Scene",
			"nodes":[
				0,
				1
			]
		}
	],
	"nodes":[
		{
			"mesh":0,
			"name":"thwomp_face1_VIS_O_OBJShape",
			"rotation":[
				0.70710688829422,
				0,
				0,
				0.7071066498756409
			]
		},
		{
			"mesh":1,
			"name":"GamemodelShape",
			"rotation":[
				0.70710688829422,
				0,
				0,
				0.7071066498756409
			]
		}
	],
	"materials":[
		{
			"doubleSided":true,
			"extensions":{
				"KHR_materials_specular":{
					"specularFactor":0
				}
			},
			"name":"asf_dossun_mat",
			"pbrMetallicRoughness":{
				"baseColorTexture":{
					"index":0
				},
				"roughnessFactor":0.858578622341156
			}
		}
	],
	"meshes":[
		{
			"name":"Mesh.003",
			"primitives":[
				{
					"attributes":{
						"POSITION":0,
						"NORMAL":1,
						"TEXCOORD_0":2,
						"COLOR_0":3,
						"COLOR_1":4
					},
					"indices":5,
					"material":0
				}
			]
		},
		{
			"name":"Mesh.002",
			"primitives":[
				{
					"attributes":{
						"POSITION":6,
						"NORMAL":7,
						"TEXCOORD_0":8,
						"COLOR_0":9,
						"COLOR_1":10
					},
					"indices":11,
					"material":0
				}
			]
		}
	],
	"textures":[
		{
			"sampler":0,
			"source":0
		}
	],
	"images":[
		{
			"mimeType":"image/png",
			"name":"thwomp",
			"uri":"thwomp.png"
		}
	],
	"accessors":[
		{
			"bufferView":0,
			"componentType":5126,
			"count":1656,
			"max":[
				3.895979881286621,
				4.850860118865967,
				-1.7334500551223755
			],
			"min":[
				-3.895979881286621,
				-4.850860118865967,
				-12.021599769592285
			],
			"type":"VEC3"
		},
		{
			"bufferView":1,
			"componentType":5126,
			"count":1656,
			"type":"VEC3"
		},
		{
			"bufferView":2,
			"componentType":5126,
			"count":1656,
			"type":"VEC2"
		},
		{
			"bufferView":3,
			"componentType":5121,
			"count":1656,
			"normalized":true,
			"type":"VEC4"
		},
		{
			"bufferView":4,
			"componentType":5123,
			"count":1656,
			"normalized":true,
			"type":"VEC4"
		},
		{
			"bufferView":5,
			"componentType":5123,
			"count":6888,
			"type":"SCALAR"
		},
		{
			"bufferView":6,
			"componentType":5126,
			"count":1388,
			"max":[
				7.596419811248779,
				4.5,
				1.6776200532913208
			],
			"min":[
				-7.596419811248779,
				-4.5,
				-15.432700157165527
			],
			"type":"VEC3"
		},
		{
			"bufferView":7,
			"componentType":5126,
			"count":1388,
			"type":"VEC3"
		},
		{
			"bufferView":8,
			"componentType":5126,
			"count":1388,
			"type":"VEC2"
		},
		{
			"bufferView":9,
			"componentType":5121,
			"count":1388,
			"normalized":true,
			"type":"VEC4"
		},
		{
			"bufferView":10,
			"componentType":5123,
			"count":1388,
			"normalized":true,
			"type":"VEC4"
		},
		{
			"bufferView":11,
			"componentType":5123,
			"count":3264,
			"type":"SCALAR"
		}
	],
	"bufferViews":[
		{
			"buffer":0,
			"byteLength":19872,
			"byteOffset":0,
			"target":34962
		},
		{
			"buffer":0,
			"byteLength":19872,
			"byteOffset":19872,
			"target":34962
		},
		{
			"buffer":0,
			"byteLength":13248,
			"byteOffset":39744,
			"target":34962
		},
		{
			"buffer":0,
			"byteLength":6624,
			"byteOffset":52992,
			"target":34962
		},
		{
			"buffer":0,
			"byteLength":13248,
			"byteOffset":59616,
			"target":34962
		},
		{
			"buffer":0,
			"byteLength":13776,
			"byteOffset":72864,
			"target":34963
		},
		{
			"buffer":0,
			"byteLength":16656,
			"byteOffset":86640,
			"target":34962
		},
		{
			"buffer":0,
			"byteLength":16656,
			"byteOffset":103296,
			"target":34962
		},
		{
			"buffer":0,
			"byteLength":11104,
			"byteOffset":119952,
			"target":34962
		},
		{
			"buffer":0,
			"byteLength":5552,
			"byteOffset":131056,
			"target":34962
		},
		{
			"buffer":0,
			"byteLength":11104,
			"byteOffset":136608,
			"target":34962
		},
		{
			"buffer":0,
			"byteLength":6528,
			"byteOffset":147712,
			"target":34963
		}
	],
	"samplers":[
		{
			"magFilter":9729,
			"minFilter":9987
		}
	],
	"buffers":[
		{
			"byteLength":154240,
			"uri":"thwomp.bin"
		}
	]
}
